<svg width="16" height="16" viewBox="0 0 16 16" fill="none" xmlns="http://www.w3.org/2000/svg">
  <circle cx="8" cy="8" r="1.5" fill="currentColor"/>
  <path d="M5.5 5.5C4.83333 6.16667 4.5 7 4.5 8C4.5 9 4.83333 9.83333 5.5 10.5" stroke="currentColor" stroke-width="1.25" stroke-linecap="round"/>
  <path d="M10.5 5.5C11.1667 6.16667 11.5 7 11.5 8C11.5 9 11.1667 9.83333 10.5 10.5" stroke="currentColor" stroke-width="1.25" stroke-linecap="round"/>
  <path d="M3.5 3.75C2.5 4.91667 2 6.33333 2 8C2 9.66667 2.5 11.0833 3.5 12.25" stroke="currentColor" stroke-width="1.25" stroke-linecap="round"/>
  <path d="M12.5 3.75C13.5 4.91667 14 6.33333 14 8C14 9.66667 13.5 11.0833 12.5 12.25" stroke="currentColor" stroke-width="1.25" stroke-linecap="round"/>
</svg>
